<svg width="500" height="501" viewBox="0 0 500 501" fill="none" xmlns="http://www.w3.org/2000/svg">
<path fill-rule="evenodd" clip-rule="evenodd" d="M302.122 5.94128C285.31 2.37585 267.874 0.5 250 0.5C111.929 0.5 0 112.429 0 250.5C0 388.571 111.929 500.5 250 500.5C281.943 500.5 312.486 494.509 340.568 483.59C327.705 469.586 317.875 452.352 311.219 432.048C305.206 413.659 302.713 398.873 301.906 376.806C301.466 364.742 301.539 364.007 302.713 364.448C303.446 364.742 308.506 366.287 314.005 367.832C314.798 368.051 315.615 368.278 316.443 368.508C321.436 369.895 326.794 371.383 329.185 371.951C332.044 372.613 336.078 373.643 338.204 374.231C341.944 375.335 342.017 375.408 342.017 378.277C342.017 386.442 346.344 418.146 349.79 434.843C352.499 448.252 356.144 461.609 360.648 474.743C443.217 433.923 500 348.843 500 250.5C500 135.107 421.819 37.973 315.537 9.17834C314.93 10.7083 314.325 12.0674 313.785 13.0593C304.033 30.4927 285.7 39.099 258.275 39.2462C252.262 39.2462 247.422 39.3933 247.422 39.4668C247.422 40.276 260.842 44.6895 267.955 46.3077C278.734 48.7352 296.846 49.0294 304.619 46.9698C313.712 44.4688 323.392 40.0553 327.205 36.6716L328.818 35.2004V37.3336C328.745 39.9817 325.885 47.1169 323.318 50.8684C317.745 58.9598 308.872 64.9917 298.753 67.4927C291.787 69.2581 277.341 68.5959 267.661 66.0215C263.628 64.9916 260.255 64.256 260.108 64.4032C259.962 64.5503 264.068 67.5662 269.201 71.1705C281.154 79.4827 290.54 88.8246 297.066 98.7549C302.273 106.773 306.746 116.335 308.579 123.397C310.046 128.987 312.026 141.492 311.586 142.007C311.366 142.154 310.486 141.64 309.532 140.83C307.039 138.477 297.653 132.592 293.18 130.532C290.907 129.502 288.927 128.105 288.707 127.443C281.081 104.272 255.855 86.9121 229.75 86.9121C225.35 86.9121 221.757 87.2063 221.757 87.5005C221.757 87.8683 223.517 88.8246 225.643 89.7073C237.229 94.5621 251.749 106.626 258.568 117.071L262.235 122.588L254.242 123.029C247.422 123.397 243.536 124.133 235.983 126.266C234.81 126.634 233.49 125.677 229.75 121.779C223.15 114.791 214.571 108.612 205.845 104.419C201.738 102.506 198.145 100.888 197.925 100.888C197.705 100.888 198.805 102.801 200.345 105.081C206.505 114.349 209.584 120.823 212.591 131.121L214.277 136.711L207.164 143.993C193.745 157.749 183.332 177.021 176.733 200.56C173.506 212.109 172.406 220.715 172.333 235.5C172.333 254.993 174.68 266.321 182.599 285.152C188.19 298.262 188.173 298.247 183.759 294.246L183.626 294.126C171.893 283.534 161.994 264.923 157.887 245.798C156.494 239.399 156.201 235.794 156.201 224.466C156.201 203.134 158.84 192.101 169.986 166.797C179.519 145.17 182.159 135.681 182.159 122.809C182.086 112.657 179.153 95.739 174.826 80.6595C174.02 77.8644 173.36 75.2898 173.36 74.9956C173.36 74.7013 175.12 75.2898 177.246 76.2461C184.872 79.7034 191.985 79.3356 198.585 75.1427C210.758 67.3455 207.751 46.6021 193.818 42.4828C188.979 41.0116 186.339 41.0116 181.573 42.4092C176.953 43.8068 171.82 48.6616 169.986 53.443C169.327 55.282 168.667 56.7531 168.52 56.7531C168.373 56.7531 166.173 55.2084 163.68 53.3694C158.254 49.3972 146.888 43.5126 140.948 41.6736L136.768 40.3495L138.015 38.1428C139.848 34.9797 151.068 24.4609 156.127 21.0773C161.994 17.2522 170.206 13.7214 179.006 11.3676C185.606 9.60217 187.439 9.45496 200.858 9.38147C214.277 9.38147 216.771 9.52856 230.19 11.8824C244.049 14.2363 245.809 14.3834 261.722 14.3834C277.634 14.3834 279.027 14.2363 285.774 12.3973C290.745 11.0524 296.693 8.6394 302.122 5.94128ZM157.154 75.2898C153.267 67.1984 147.841 61.6815 139.628 57.5623C136.328 55.944 133.028 54.5464 132.369 54.5464C129.435 54.6199 119.682 66.0215 115.429 74.4807C111.616 81.9836 110.003 89.1924 110.003 98.6814C109.93 108.906 111.176 113.908 115.869 123.691C118.729 129.502 120.342 131.709 125.475 136.858C128.849 140.168 131.782 142.816 131.928 142.669C132.075 142.522 131.855 140.904 131.415 139.139C131.049 137.3 130.829 133.107 131.049 129.723C131.342 124.868 131.855 122.661 133.615 119.057C137.942 110.377 146.814 103.904 158.254 101.182L163.974 99.8583L163.46 95.8862C162.654 89.6337 160.307 81.8365 157.154 75.2898ZM303.813 160.25C295.306 152.085 287.46 147.23 277.341 143.699C270.301 141.272 269.128 141.051 259.522 140.904C246.762 140.61 240.749 141.787 231.656 146.274C219.997 152.085 210.611 164.075 207.458 177.242C205.625 184.892 206.211 196.882 208.924 205.341C214.204 221.965 224.397 237.045 241.116 253.154C261.428 272.868 292.3 291.184 330.285 306.263C343.264 311.486 356.683 315.899 357.27 315.311C357.856 314.796 354.337 300.305 353.457 299.202C353.017 298.687 350.01 297.363 346.784 296.186C338.717 293.317 321.778 285.152 313.419 280.076C297.36 270.22 279.394 254.552 268.175 240.649C255.635 225.055 245.149 204.458 243.976 193.204C243.609 189.894 243.829 189.158 245.589 187.099C249.476 182.464 253.435 184.745 256.222 193.278C262.235 211.814 272.501 227.776 288.78 243.959C302.126 257.273 315.472 266.983 330.871 274.78C337.031 277.87 349.497 283.313 350.377 283.313C351.183 283.313 350.743 280.297 347.884 265.88C340.991 231.749 334.171 208.725 325.518 190.997C318.845 177.315 312.979 168.93 303.813 160.25ZM197.485 224.834C193.892 217.037 190.225 207.107 190.225 204.826C190.225 204.091 189.932 203.061 189.565 202.546C189.199 201.957 188.465 204.311 187.586 208.798C185.459 219.611 185.679 241.091 187.879 251.609C189.932 261.098 193.232 269.337 198.658 278.605C204.745 288.977 217.211 301.408 229.75 309.721C248.376 322.005 275.068 333.259 309.606 343.557C333.291 350.619 370.102 359.814 371.056 358.931C371.202 358.71 370.322 355.474 369.149 351.649L366.949 344.661L357.563 341.866C346.27 338.555 321.118 328.551 307.552 322.078C287.167 312.369 265.315 299.128 248.522 286.329C244.489 283.313 236.203 275.81 230.19 269.705C214.937 254.478 204.965 240.723 197.485 224.834ZM283.427 358.048C281.154 357.313 274.041 354.591 267.515 352.017C260.988 349.442 255.489 347.309 255.195 347.309C254.462 347.309 254.682 361.653 255.562 370.553C258.055 396.372 268.615 419.69 285.04 435.653C290.173 440.655 300.733 448.599 301.393 447.937C301.539 447.716 300.513 444.48 299.12 440.655C291.493 420.132 288.56 403.508 287.974 377.468L287.533 359.446L283.427 358.048Z" fill="#04EAB2"/>
</svg>
